CATALOG 0000000000000
FILE "Nanatsu no Hikan (Japan) (Disc 2) (2M) (Track 01).bin" BINARY
  TRACK 01 MODE1/2352
    INDEX 01 00:00:00
FILE "Nanatsu no Hikan (Japan) (Disc 2) (2M) (Track 02).bin" BINARY
  TRACK 02 AUDIO
    INDEX 00 00:00:00
    INDEX 01 00:02:00
FILE "Nanatsu no Hikan (Japan) (Disc 2) (2M) (Track 03).bin" BINARY
  TRACK 03 AUDIO
    INDEX 00 00:00:00
    INDEX 01 00:02:00
    INDEX 02 01:06:73
FILE "Nanatsu no Hikan (Japan) (Disc 2) (2M) (Track 04).bin" BINARY
  TRACK 04 AUDIO
    INDEX 00 00:00:00
    INDEX 01 00:02:00
    INDEX 02 00:25:27
FILE "Nanatsu no Hikan (Japan) (Disc 2) (2M) (Track 05).bin" BINARY
  TRACK 05 AUDIO
    INDEX 00 00:00:00
    INDEX 01 00:02:00
    INDEX 02 00:07:53
FILE "Nanatsu no Hikan (Japan) (Disc 2) (2M) (Track 06).bin" BINARY
  TRACK 06 AUDIO
    INDEX 00 00:00:00
    INDEX 01 00:02:00
    INDEX 02 01:13:69
FILE "Nanatsu no Hikan (Japan) (Disc 2) (2M) (Track 07).bin" BINARY
  TRACK 07 AUDIO
    INDEX 00 00:00:00
    INDEX 01 00:02:00
    INDEX 02 00:12:32
FILE "Nanatsu no Hikan (Japan) (Disc 2) (2M) (Track 08).bin" BINARY
  TRACK 08 AUDIO
    INDEX 00 00:00:00
    INDEX 01 00:02:00
    INDEX 02 00:24:37
FILE "Nanatsu no Hikan (Japan) (Disc 2) (2M) (Track 09).bin" BINARY
  TRACK 09 AUDIO
    INDEX 00 00:00:00
    INDEX 01 00:02:00
    INDEX 02 00:08:53
FILE "Nanatsu no Hikan (Japan) (Disc 2) (2M) (Track 10).bin" BINARY
  TRACK 10 AUDIO
    INDEX 00 00:00:00
    INDEX 01 00:02:00
    INDEX 02 01:38:13
FILE "Nanatsu no Hikan (Japan) (Disc 2) (2M) (Track 11).bin" BINARY
  TRACK 11 AUDIO
    INDEX 00 00:00:00
    INDEX 01 00:02:00
    INDEX 02 00:52:28
FILE "Nanatsu no Hikan (Japan) (Disc 2) (2M) (Track 12).bin" BINARY
  TRACK 12 AUDIO
    INDEX 00 00:00:00
    INDEX 01 00:02:00
    INDEX 02 00:07:45
FILE "Nanatsu no Hikan (Japan) (Disc 2) (2M) (Track 13).bin" BINARY
  TRACK 13 AUDIO
    INDEX 00 00:00:00
    INDEX 01 00:02:00
    INDEX 02 00:11:55
FILE "Nanatsu no Hikan (Japan) (Disc 2) (2M) (Track 14).bin" BINARY
  TRACK 14 AUDIO
    INDEX 00 00:00:00
    INDEX 01 00:02:00
    INDEX 02 00:09:06
FILE "Nanatsu no Hikan (Japan) (Disc 2) (2M) (Track 15).bin" BINARY
  TRACK 15 AUDIO
    INDEX 00 00:00:00
    INDEX 01 00:02:00
    INDEX 02 00:08:02
FILE "Nanatsu no Hikan (Japan) (Disc 2) (2M) (Track 16).bin" BINARY
  TRACK 16 AUDIO
    INDEX 00 00:00:00
    INDEX 01 00:02:00
    INDEX 02 00:08:58
FILE "Nanatsu no Hikan (Japan) (Disc 2) (2M) (Track 17).bin" BINARY
  TRACK 17 AUDIO
    INDEX 00 00:00:00
    INDEX 01 00:02:00
    INDEX 02 00:08:30
FILE "Nanatsu no Hikan (Japan) (Disc 2) (2M) (Track 18).bin" BINARY
  TRACK 18 AUDIO
    INDEX 00 00:00:00
    INDEX 01 00:02:00
    INDEX 02 00:09:36
FILE "Nanatsu no Hikan (Japan) (Disc 2) (2M) (Track 19).bin" BINARY
  TRACK 19 AUDIO
    INDEX 00 00:00:00
    INDEX 01 00:02:00
    INDEX 02 00:09:36
FILE "Nanatsu no Hikan (Japan) (Disc 2) (2M) (Track 20).bin" BINARY
  TRACK 20 AUDIO
    INDEX 00 00:00:00
    INDEX 01 00:02:00
    INDEX 02 00:07:37
FILE "Nanatsu no Hikan (Japan) (Disc 2) (2M) (Track 21).bin" BINARY
  TRACK 21 AUDIO
    INDEX 00 00:00:00
    INDEX 01 00:02:00
    INDEX 02 00:17:20
FILE "Nanatsu no Hikan (Japan) (Disc 2) (2M) (Track 22).bin" BINARY
  TRACK 22 AUDIO
    INDEX 00 00:00:00
    INDEX 01 00:02:00
    INDEX 02 00:10:50
FILE "Nanatsu no Hikan (Japan) (Disc 2) (2M) (Track 23).bin" BINARY
  TRACK 23 AUDIO
    INDEX 00 00:00:00
    INDEX 01 00:02:00
    INDEX 02 00:22:21
FILE "Nanatsu no Hikan (Japan) (Disc 2) (2M) (Track 24).bin" BINARY
  TRACK 24 AUDIO
    INDEX 00 00:00:00
    INDEX 01 00:02:00
    INDEX 02 00:18:67
FILE "Nanatsu no Hikan (Japan) (Disc 2) (2M) (Track 25).bin" BINARY
  TRACK 25 AUDIO
    INDEX 00 00:00:00
    INDEX 01 00:02:00
    INDEX 02 00:05:46
FILE "Nanatsu no Hikan (Japan) (Disc 2) (2M) (Track 26).bin" BINARY
  TRACK 26 AUDIO
    INDEX 00 00:00:00
    INDEX 01 00:02:00
    INDEX 02 00:08:64
